<?xml version="1.0" standalone="no"?>
<!DOCTYPE svg PUBLIC "-//W3C//DTD SVG 1.1//EN" "http://www.w3.org/Graphics/SVG/1.1/DTD/svg11.dtd" >
<svg xmlns="http://www.w3.org/2000/svg">
<metadata>Generated by IcoMoon</metadata>
<defs>
<font id="moon" horiz-adv-x="1024">
<font-face units-per-em="1024" ascent="960" descent="-64" />
<missing-glyph horiz-adv-x="1024" />
<glyph unicode="&#x20;" horiz-adv-x="512" d="" />
<glyph unicode="&#xe900;" glyph-name="open" d="M509.002 295.875c-0.014 0-0.031 0-0.048 0-6.177 0-11.769 2.508-15.812 6.561v0l-253.454 253.454c-3.814 4.012-6.16 9.45-6.16 15.436 0 12.383 10.038 22.421 22.421 22.421 5.997 0 11.444-2.355 15.468-6.19l253.445-253.402c4.061-4.058 6.573-9.666 6.573-15.86 0-12.383-10.038-22.421-22.421-22.421-0.004 0-0.008 0-0.012 0h0.001zM509.002 295.875c-0.053 0-0.116-0.001-0.179-0.001-12.335 0-22.334 9.999-22.334 22.334 0 6.223 2.545 11.852 6.651 15.902l0.003 0.002 259.451 259.407c3.973 3.641 9.289 5.872 15.127 5.872 12.383 0 22.421-10.038 22.421-22.421 0-5.838-2.231-11.154-5.887-15.144l0.015 0.017-259.364-259.407c-4.070-4.055-9.684-6.561-15.884-6.561-0.007 0-0.013 0-0.020 0h0.001z" />
<glyph unicode="&#xe901;" glyph-name="nintendo-switch" d="M255.7 893c-89.2-16-161-82-183.6-168.8-8.2-31.4-8.8-49.8-7.8-293 0.4-223.2 0.6-228.4 4.4-245.8 20.6-93 86.6-159.2 180.6-181 12.2-2.8 27.8-3.4 128.2-3.8 103.8-0.8 114.6-0.6 117.4 2.2s3 38.6 3 444.4c0 301-0.6 442.6-1.8 445.2-1.8 3.4-5 3.6-113.8 3.4-88.4-0.2-115-0.8-126.6-2.8zM423.5 447.8v-375.8l-75.6 1c-69.6 0.8-77 1.2-91 4.6-59.8 15.4-104 61.4-116.6 121.4-4 18.8-4 480.2-0.2 498.6 11.2 52.2 47.4 95.4 96 114.8 24.4 9.8 35.8 11 115.2 11.2l71.8 0.2v-376zM271.7 710.2c-11.6-2.2-29.4-11.2-39-19.4-19.4-16.8-29.2-40.8-27.6-69 0.8-14.6 1.6-18.6 7.6-30.4 8.8-18 21.8-31.2 39.8-40 12.4-6.2 15.6-6.8 31.8-7.4 14.6-0.6 19.8 0 29.6 3.4 40.2 13.6 64.6 52.6 57.6 92.8-7.8 47.4-53.2 79.4-99.8 70zM588.1 894.8c-0.8-0.6-1.2-201.6-1.2-447 0-404.6 0.2-445.6 3-446.8 5-1.8 149-1.2 166.8 0.8 75.4 8.6 142 54.4 178 122.4 4.6 8.8 10.8 23.4 14 32.4 11.6 34.8 11.4 25.6 11.4 292.2 0 212.8-0.4 244.6-3 258-18.4 96.6-92.2 169.6-189 186.2-13 2.2-33 2.8-97.6 2.8-44.8 0.2-81.8-0.4-82.4-1zM786.3 490.6c29-7.6 52.6-29.6 62.4-57.8 6.2-17.4 6-43-0.2-59-11.4-29.4-33.6-50-62.2-57.6-46.4-12-95.8 16-109.2 62-4 14-3.8 37.8 0.8 52.4 13.8 45.4 62 72.2 108.4 60z" />
<glyph unicode="&#xe902;" glyph-name="chart" d="M87.333 44.544v890.587h-62.464v-974.261h974.261v83.529l-911.798 0.146zM693.979 610.377h-128.585v-480.695h128.586v480.695zM874.203 851.456h-128.585v-721.774h128.585v721.774zM513.755 767.926h-128.585v-638.244h128.585v638.245zM331.191 457.656h-128.585v-327.973h128.584v327.972z" />
<glyph unicode="&#xe903;" glyph-name="Home" d="M65.893 455.158c27.647 23.671 55.61 46.986 82.889 71.075 116.588 102.97 232.967 206.173 349.455 309.259 4.253 3.765 8.798 7.196 14.224 11.61 68.757-60.74 136.953-120.986 207.882-183.644 0 32.735 0 62.792 0 93.977 33.404 0 64.489 0 98.357 0 0-5.515 0-11.603 0-17.692 0-49.92-0.257-99.843 0.302-149.756 0.075-6.699 2.269-15.536 6.837-19.688 41.66-37.859 84.055-74.912 126.305-112.122 1.616-1.426 3.957-2.031 5.964-3.018 0-1.162 0-2.324 0-3.486-19.744-21.953-39.486-43.904-60.319-67.070-128.638 113.785-256.656 227.023-385.795 341.251-128.682-113.818-256.391-226.779-385.059-340.582-20.608 22.416-40.826 44.409-61.042 66.399 0 1.162 0 2.324 0 3.486zM818.050 48.898c-67.443 0-134.004 0-202.708 0 0 90.991 0 181.833 0 274.099-67.903 0-133.68 0-201.374 0 0-90.468 0-180.752 0-272.455-72.314 0-142.736 0-214.034 0-0.369 5.099-0.973 9.588-0.978 14.074-0.054 98.694-0.172 197.392 0.248 296.085 0.029 6.758 2.112 15.856 6.718 19.906 101.976 89.679 204.444 178.797 307.959 269.018 29.364-26.109 58.33-51.818 87.248-77.584 68.917-61.4 137.944-122.679 206.464-184.518 5.68-5.124 11.142-14.093 11.192-21.31 0.721-101.595 0.503-203.194 0.44-304.793-0.003-3.898-0.712-7.799-1.176-12.522z" />
<glyph unicode="&#xe904;" glyph-name="newword" d="M100.366 921.003v-127.972h-71.111v-170.795h71.111v-99.243h-71.111v-170.795h71.111v-99.527h-71.111v-170.795h71.111v-127.986h896v967.111h-896zM57.7 650.78v113.778h85.333v-113.778h-85.333zM57.7 380.274v114.148h85.333v-114.148h-85.333zM57.7 110.521v113.55h85.333v-113.55h-85.333zM953.7-3.428h-810.667v85.319h28.444v170.795h-28.444v99.527h28.444v170.78h-28.444v99.243h28.444v170.795h-28.444v85.305l810.667 1.508v-883.271zM797.255 679.268h-497.778v-42.809h497.778v42.809z" />
<glyph unicode="&#xe905;" glyph-name="memory" horiz-adv-x="1025" d="M553.476 960.034h-5.92c-250.015-4.041-451.139-207.664-451.139-458.262 0-2.152 0.015-4.301 0.044-6.446l-0.004 0.325c-0.076-0.844-0.12-1.825-0.12-2.816s0.044-1.972 0.129-2.941l-0.009 0.125c-30.901-33.356-96.458-109.309-96.458-162.014 0.722-57.759 56.026-79.996 95.447-80.863l44.763-9.097 11.263-220.495c0.969-44.611 37.286-80.422 82.003-80.574h1.026l167.646 2.166c17.22 1.177 30.743 15.435 30.743 32.85s-13.523 31.673-30.642 32.845l-0.102 0.006-167.646-2.166c-4.543 0.065-8.652 1.868-11.703 4.772l0.007-0.007c-3.373 2.678-5.668 6.588-6.201 11.040l-0.008 0.079-14.44 272.767-101.078 21.515h-2.599c-7.718 0.254-15.032 1.608-21.912 3.911l0.541-0.157c-11.552 4.188-11.552 8.519-11.696 12.274 0 18.916 40.576 76.82 86.639 124.182 5.86 5.941 9.479 14.105 9.479 23.114 0 3.715-0.615 7.286-1.75 10.618l0.069-0.232c0.917 2.893 1.445 6.219 1.445 9.669 0 0.103 0 0.207-0.001 0.31v-0.016c-0.021 1.513-0.033 3.299-0.033 5.088 0 215.020 172.848 389.67 387.177 392.58l0.274 0.003h5.054c214.424-0.797 388.266-173.423 391.026-387.302l0.003-0.261c0.163-17.978 14.776-32.489 32.777-32.489 0 0 0.001 0 0.001 0v0c0.13-0.002 0.283-0.003 0.436-0.003 18.103 0 32.778 14.675 32.778 32.778 0 0.153-0.001 0.306-0.003 0.459v-0.023c-3.094 250.379-206.552 452.216-457.262 452.686h-0.045zM324.317 483.522c-0.032 0-0.071 0-0.109 0-9.607 0-18.326-3.798-24.739-9.974l0.011 0.011c-6.318-5.878-10.356-14.134-10.684-23.334l-0.002-0.058v-340.49c0.002-9.466 3.929-18.013 10.242-24.105l0.010-0.010c6.402-6.166 15.121-9.964 24.728-9.964 0.038 0 0.077 0 0.115 0h210.814v-105.266h-69.888v-34.078h210.82v34.078h-70.177v105.41h210.82c0.303-0.010 0.66-0.015 1.018-0.015 18.891 0 34.252 15.115 34.648 33.911l0.001 0.037v340.49c-0.71 18.579-15.944 33.371-34.632 33.371-0.364 0-0.726-0.006-1.087-0.017l0.053 0.001zM816.28 144.332c0-33.645-1.444-33.933-35.089-33.933h-420.197c-34.8 0-36.099-0.722-35.089 33.933v271.179c0 34.511 0 33.789 35.089 33.789h420.197c33.645 0 35.089-1.444 35.089-33.789v-271.179zM789.277 173.211c0-27.002-1.3-27.291-31.19-27.291h-374.567c-30.901 0-32.201 0-31.19 27.291v218.329c0 27.869 0 27.291 31.19 27.291h374.423c29.89 0 31.19-1.155 31.19-27.291v-218.329zM693.108 382.443h-245.476c-0.087 0.002-0.189 0.002-0.291 0.002-9.469 0-17.164-7.595-17.325-17.026v-34.093c0-0.001 0-0.002 0-0.002 0-9.57 7.758-17.328 17.328-17.328 0.102 0 0.203 0.001 0.304 0.003h245.461c0.087-0.002 0.189-0.002 0.291-0.002 9.469 0 17.164 7.595 17.325 17.026v33.948c0 0.044 0.001 0.095 0.001 0.147 0 9.57-7.758 17.328-17.328 17.328-0.102 0-0.203-0.001-0.305-0.003h0.015zM693.108 246.277h-245.476c-0.030 0-0.065 0-0.101 0-4.776 0-9.115-1.87-12.325-4.917l0.008 0.007c-3.171-3.024-5.156-7.269-5.198-11.977v-34.663c0.042-4.716 2.027-8.961 5.192-11.979l0.007-0.006c3.208-3.115 7.587-5.040 12.416-5.054h245.479c0.13-0.003 0.282-0.005 0.436-0.005 9.47 0 17.166 7.597 17.325 17.029v34.093c-0.159 9.447-7.855 17.044-17.325 17.044-0.153 0-0.306-0.002-0.458-0.006h0.022zM1006.162 181.298h-106.565c-10.421-0.24-18.777-8.744-18.777-19.2 0-0.154 0.002-0.308 0.005-0.461v0.023-206.055c-0.003-0.13-0.005-0.284-0.005-0.438 0-10.456 8.356-18.96 18.754-19.2h106.587c10.546 0.079 19.065 8.647 19.065 19.204 0 0.152-0.002 0.305-0.005 0.456v-0.023 206.055c0.003 0.13 0.005 0.284 0.005 0.438 0 10.456-8.356 18.96-18.754 19.2h-0.022zM935.696 163.392c-0.001 0.044-0.002 0.095-0.002 0.147 0 2.582 2.053 4.684 4.616 4.763h25.277c2.57-0.079 4.623-2.181 4.623-4.763 0-0.052-0.001-0.103-0.002-0.154v0.007c0.001-0.044 0.002-0.095 0.002-0.147 0-2.582-2.053-4.684-4.616-4.763h-25.277c-2.57 0.079-4.623 2.181-4.623 4.763 0 0.052 0.001 0.103 0.002 0.154v-0.007zM953.024-56.67c-0.129-0.006-0.281-0.009-0.433-0.009-5.901 0-10.685 4.784-10.685 10.685s4.784 10.685 10.685 10.685c5.898 0 10.68-4.779 10.685-10.676v0c0.003-0.086 0.004-0.188 0.004-0.29 0-5.693-4.575-10.317-10.249-10.396h-0.007zM1009.339-24.758c0.002-0.043 0.003-0.094 0.003-0.144 0-1.754-1.422-3.177-3.177-3.177-0.001 0-0.002 0-0.003 0h-106.565c-0.001 0-0.002 0-0.003 0-1.754 0-3.177 1.422-3.177 3.177 0 0.051 0.001 0.101 0.004 0.152v-0.007 166.779c-0.002 0.043-0.003 0.094-0.003 0.144 0 1.754 1.422 3.177 3.177 3.177 0.001 0 0.002 0 0.003 0h106.565c0.001 0 0.002 0 0.003 0 1.754 0 3.177-1.422 3.177-3.177 0-0.051-0.001-0.101-0.004-0.152v0.007-166.779zM993.744 34.157h-81.585c-1.754 0-3.177-1.422-3.177-3.177v0c0-1.754 1.422-3.177 3.177-3.177v0h81.585c1.754 0 3.177 1.422 3.177 3.177v0c0 1.754-1.422 3.177-3.177 3.177v0zM953.024 50.329c0.474-0.020 1.030-0.032 1.588-0.032 21.692 0 39.276 17.585 39.276 39.276s-17.585 39.276-39.276 39.276c-21.68 0-39.258-17.566-39.276-39.242v-0.002c-0.006-0.26-0.010-0.566-0.010-0.873 0-20.963 16.793-38.003 37.66-38.403l0.037-0.001zM953.024 122.528c0.431 0.020 0.936 0.032 1.444 0.032 18.103 0 32.778-14.675 32.778-32.778s-14.675-32.778-32.778-32.778c-18.092 0-32.76 14.657-32.778 32.745v0.002c-0.005 0.217-0.008 0.473-0.008 0.73 0 17.453 13.948 31.649 31.305 32.048l0.037 0.001zM949.992 88.594c0.382-1.151 1.374-1.997 2.583-2.164l0.017-0.002 14.44-1.588c0.004 0 0.009 0 0.013 0 1.653 0 3.011 1.262 3.163 2.875l0.001 0.013c0.021 0.138 0.033 0.297 0.033 0.458 0 1.613-1.203 2.946-2.761 3.15l-0.016 0.002-12.129 1.444-5.632 17.617c-0.379 1.274-1.539 2.187-2.912 2.187-0.353 0-0.693-0.060-1.008-0.172l0.021 0.007c-1.292-0.475-2.196-1.694-2.196-3.125 0-0.38 0.064-0.746 0.182-1.086l-0.007 0.023 6.209-19.638zM993.744 14.518h-81.585c-1.754 0-3.177-1.422-3.177-3.177v0c0-1.754 1.422-3.177 3.177-3.177v0h81.585c1.754 0 3.177 1.422 3.177 3.177v0c0 1.754-1.422 3.177-3.177 3.177v0zM993.744-5.12h-81.585c-1.754 0-3.177-1.422-3.177-3.177v0c0-1.754 1.422-3.177 3.177-3.177v0h81.585c1.754 0 3.177 1.422 3.177 3.177v0c0 1.754-1.422 3.177-3.177 3.177v0z" />
<glyph unicode="&#xe906;" d="M332.256 797.568c-12 4.992-25.728 2.24-34.88-6.944l-192-192c-12.512-12.512-12.512-32.736 0-45.248s32.736-12.512 45.248 0l137.376 137.376v-530.752c0-17.696 14.336-32 32-32s32 14.304 32 32v608c0 12.928-7.808 24.608-19.744 29.568z" />
<glyph unicode="&#xe907;" d="M918.624 342.624c-12.512 12.512-32.736 12.512-45.248 0l-105.376-105.376v530.752c0 17.664-14.304 32-32 32s-32-14.336-32-32v-608c0-12.928 7.776-24.64 19.744-29.568 3.968-1.664 8.128-2.432 12.256-2.432 8.32 0 16.512 3.264 22.624 9.376l160 160c12.512 12.512 12.512 32.736 0 45.248z" />
<glyph unicode="&#xe908;" glyph-name="pronunciation" d="M213.888 614.805c0 0 0 0 0 0-46.794 0-84.742-37.873-84.864-84.639v-192.332c0.121-46.777 38.070-84.651 84.864-84.651 0 0 0 0 0 0h90.816l192.704-119.957c16.96-10.581 32.299-13.568 42.027-8.149 9.685 5.355 15.232 19.819 15.232 39.659v538.901c0 19.84-5.461 34.219-14.976 39.445-9.557 5.248-24.725 2.069-41.6-8.64l-188.267-119.637h-95.936zM528.299 78.635c-16.981 0-35.371 5.888-53.973 17.493l-182.123 113.344h-78.293c-70.933 0-128.576 57.579-128.576 128.363v192.32c0 70.784 57.664 128.363 128.555 128.363h83.221l177.536 112.811c31.168 19.861 61.781 23.424 86.101 10.069 24.256-13.333 37.611-40.939 37.611-77.76v-538.901c0-36.715-13.376-64.384-37.696-77.888-9.19-5.17-20.174-8.215-31.868-8.215-0.174 0-0.347 0.001-0.521 0.002h0.027zM810.709 136.341c-11.78 0.003-21.329 9.553-21.329 21.333 0 5.609 2.164 10.712 5.704 14.52l-0.012-0.013c63.481 68.205 102.443 159.972 102.443 260.84 0 0.174 0 0.347 0 0.521v-0.027c0 96.704-36.053 189.141-101.483 260.267-3.82 3.854-6.181 9.16-6.181 15.017 0 11.782 9.551 21.333 21.333 21.333 6.484 0 12.292-2.892 16.205-7.457l0.024-0.029c69.898-75.624 112.768-177.127 112.768-288.643 0-0.179 0-0.357 0-0.536v0.027c0-108.053-40.427-211.157-113.835-290.325-3.887-4.204-9.43-6.827-15.586-6.827-0.018 0-0.036 0-0.054 0h0.003zM731.797 263.253c-11.77 0.016-21.305 9.561-21.305 21.333 0 3.628 0.905 7.044 2.503 10.035l-0.056-0.115c21.579 40.309 34.255 88.178 34.255 139.008s-12.676 98.699-35.039 140.619l0.784-1.611c-1.602 2.922-2.545 6.403-2.545 10.104 0 11.782 9.551 21.333 21.333 21.333 8.219 0 15.353-4.648 18.915-11.459l0.056-0.118c24.656-46.077 39.141-100.792 39.147-158.889v-0.001c0-55.317-13.547-110.251-39.147-158.869-3.653-6.814-10.727-11.371-18.864-11.371-0.013 0-0.026 0-0.039 0h0.002z" />
<glyph unicode="&#xe909;" glyph-name="finish" d="M512 948.429c-276.362 0-500.39-224.034-500.39-500.39 0-276.362 224.028-500.39 500.39-500.39 276.355 0 500.39 224.028 500.39 500.39 0 276.355-224.034 500.39-500.39 500.39zM446.132 220.346l-240.865 241.013 60.411 60.441 180.453-180.545 310.705 310.795 60.427-60.449-371.131-371.254z" />
<glyph unicode="&#xe90a;" glyph-name="chat" d="M892.367 834h-634.848c-37.38 0-67.681-29.141-67.681-65.089v-453.018c0-35.947 30.301-65.090 67.681-65.090h564.254l105.838-101.786v111.301c19.452 11.435 32.436 32.045 32.436 55.574v453.018c0.001 35.948-30.301 65.089-67.68 65.089zM158.705 205.242c-26.764 17.427-27.070 68.388-27.073 70.239v343.075c-38.21 0.012-59.397-24.149-67.004-54.024l-0.677-22.13v-305.917c0-21.379-3.38-50.109 3.384-66.389 6.204-14.937 15.614-26.128 28.922-33.814v-72.281l64.958 62.47c0.518 0.006 1.042 0.015 1.55 0.015h457.523c9.029 0 19.795-1.205 27.749 0.65 30.961 7.228 56.335 27.762 56.175 64.438h-506.436c-13.998 2.274-27.944 6.423-39.072 13.668z" />
<glyph unicode="&#xe90b;" glyph-name="info" d="M500.8 235.2c-20.8 0-38.4-6.4-52.8-20.8s-20.8-30.4-20.8-52.8 6.4-38.4 20.8-52.8c14.4-14.4 32-20.8 52.8-20.8s38.4 6.4 52.8 20.8c14.4 14.4 22.4 32 22.4 52.8s-8 38.4-20.8 52.8c-14.4 14.4-33.6 20.8-54.4 20.8zM672 747.2c-38.4 35.2-91.2 51.2-153.6 51.2-72 0-128-20.8-171.2-60.8-28.8-27.2-48-62.4-56-102.4-8-33.6 19.2-67.2 54.4-67.2 25.6 0 49.6 19.2 54.4 44.8 3.2 20.8 11.2 36.8 20.8 51.2 19.2 27.2 48 40 91.2 40 33.6 0 59.2-8 78.4-27.2 17.6-19.2 27.2-43.2 27.2-76.8 0-24-8-48-25.6-68.8l-11.2-14.4c-64-56-100.8-97.6-113.6-123.2-4.8-9.6-9.6-25.6-11.2-43.2-6.4-33.6 20.8-65.6 56-65.6 27.2 0 49.6 19.2 54.4 46.4 1.6 12.8 4.8 24 8 30.4 8 17.6 20.8 33.6 38.4 48 46.4 41.6 75.2 67.2 83.2 76.8 24 30.4 36.8 70.4 36.8 120-3.2 59.2-22.4 105.6-60.8 140.8z" />
<glyph unicode="&#xe90c;" glyph-name="user" d="M1023.215 10.829c-0.683 14.144-4.292 31.311-10.925 51.453-6.584 20.094-15.802 36.091-27.653 47.893-11.217 11.559-33.652 24.239-67.255 38.041-19.288 8.923-57.026 23.732-95.163 37.715l-18.961 6.082c-42.528 15.363-73.839 28.092-93.933 38.334-24.886 12.798-44.836 32.184-57.973 55.873l-0.357 0.702c-12.943 22.214-20.638 48.869-20.776 77.311v0.040c0 18.143 10.876 39.553 32.677 64.28 11.51 13.168 22.337 33.652 32.579 61.256 30.287 12.242 45.455 37.798 45.455 76.668 0 28.629-4.78 49.259-14.339 61.793 2.682 18.045 5.657 45.942 8.925 83.545 0.314 3.909 0.494 8.463 0.494 13.059 0 25.62-5.571 49.938-15.567 71.81l0.442-1.080c-12.248 28.296-28.821 52.464-49.167 72.869l0.005-0.005c-20.716 20.591-45.001 37.62-71.841 50.073l-1.559 0.649c-25.248 12.168-54.88 19.345-86.171 19.508h-0.056c-29.019 0-58.037-6.535-86.227-19.508-28.403-13.093-52.689-30.123-73.412-50.733l0.011 0.011c-20.371-20.39-36.963-44.561-48.63-71.368l-0.58-1.496c-9.528-20.767-15.083-45.053-15.083-70.637 0-4.628 0.182-9.214 0.539-13.751l-0.038 0.6c3.268-37.554 6.243-65.451 8.876-83.545-9.559-12.534-14.29-33.164-14.29-61.793 0-38.87 15.119-64.426 45.455-76.668 10.242-27.653 21.069-48.088 32.628-61.256 21.752-24.727 32.628-46.137 32.628-64.28 0-26.678-6.925-52.478-20.776-77.351-13.494-24.39-33.445-43.777-57.563-56.215l-0.767-0.36c-20.094-10.242-51.405-22.971-93.933-38.334-42.48-15.314-80.57-29.897-114.173-43.748s-56.038-26.531-67.206-38.041c-11.851-11.9-21.118-27.848-27.702-47.942-6.584-20.142-10.242-37.261-10.876-51.453l-0.975-21.215h1024.191l-0.975 21.264z" />
<glyph unicode="&#xe90d;" glyph-name="go_sign" d="M338.752 576l-96 96 45.248 45.248 173.248-173.248-173.248-173.248-45.248 45.248 96 96h-338.752v64h338.752zM640 704l384 256v-768l-384-256v768zM256 256h64v-64h640v704h-640v-64h-64v128h768v-832h-768v128z" />
<glyph unicode="&#xe90e;" glyph-name="light" d="M243.2 448c0-148.454 120.346-268.8 268.8-268.8s268.8 120.346 268.8 268.8v0c0 148.454-120.346 268.8-268.8 268.8s-268.8-120.346-268.8-268.8v0zM512 761.6c24.7 0 45 20.1 45 44.8v44.8c0 24.7-20.3 44.8-45 44.8s-45-20.1-45-44.8v-44.8c0-24.7 20.3-44.8 45-44.8zM512 134.4c-24.7 0-45-20.1-45-44.8v-44.8c0-24.7 20.3-44.8 45-44.8s45 20.1 45 44.8v44.8c0 24.7-20.3 44.8-45 44.8zM797.1 669.7l31.7 31.7c17.5 17.5 17.5 45.9 0 63.4s-45.9 17.5-63.4 0l-31.7-31.7c-17.5-17.5-17.5-45.9 0-63.4 17.5-17.4 45.9-17.4 63.4 0zM226.9 226.3l-31.7-31.7c-17.5-17.5-17.5-45.9 0-63.4s45.9-17.5 63.4 0l31.7 31.7c17.5 17.5 17.5 45.9 0 63.4-17.5 17.4-45.9 17.4-63.4 0zM915.2 493h-44.8c-24.7 0-44.8-20.3-44.8-45s20.1-45 44.8-45h44.8c24.7 0 44.8 20.3 44.8 45s-20.1 45-44.8 45zM198.4 448c0 24.7-20.1 45-44.8 45h-44.8c-24.7 0-44.8-20.3-44.8-45s20.1-45 44.8-45h44.8c24.7 0 44.8 20.3 44.8 45zM797.1 226.3c-17.5 17.5-45.9 17.5-63.4 0s-17.5-45.9 0-63.4l31.7-31.7c17.5-17.5 45.9-17.5 63.4 0s17.5 45.9 0 63.4l-31.7 31.7zM226.9 669.7c17.5-17.5 45.9-17.5 63.4 0s17.5 45.9 0 63.4l-31.7 31.7c-17.5 17.5-45.9 17.5-63.4 0s-17.5-45.9 0-63.4l31.7-31.7z" />
<glyph unicode="&#xe90f;" d="M492.479 423.637c0.136 213.332 137.25 394.603 328.144 460.632l3.426 1.031c-46.795 16.442-100.749 25.94-156.922 25.94-269.296 0-487.603-218.307-487.603-487.603s218.307-487.603 487.603-487.603c56.173 0 110.127 9.499 160.344 26.977l-3.422-1.037c-194.32 67.059-331.434 248.331-331.57 461.646v0.017zM915.328 712.103c-3.576 39.925-15.291 76.437-33.471 108.832l0.704-1.364c-17.646-30.758-29.551-66.982-33.267-105.599l-0.085-1.089c-41.758-3.306-80.054-15.414-113.926-34.459l1.387 0.717c32.496-18.263 70.798-30.306 111.587-33.487l0.951-0.060c3.737-39.706 15.651-75.94 34.038-107.985l-0.686 1.298c17.699 30.995 29.612 67.492 33.27 106.391l0.082 1.077c38.442 4.2 73.4 15.841 104.522 33.468l-1.345-0.701c-29.939 17.060-65.101 28.775-102.556 32.855l-1.205 0.107zM124.241 887.64c-2.139 26.863-9.979 51.487-22.302 73.237l0.457-0.877c-11.806-20.582-19.805-44.808-22.369-70.634l-0.060-0.752c-27.838-2.114-53.4-10.099-76.028-22.714l0.937 0.48c21.691-12.135 47.253-20.121 74.467-22.196l0.623-0.038c2.654-26.509 10.649-50.665 22.896-72.075l-0.466 0.885c11.789 20.64 19.618 44.986 21.801 70.938l0.044 0.642c25.787 2.808 49.245 10.568 70.159 22.319l-0.919-0.475c-19.98 11.364-43.454 19.136-68.458 21.778l-0.782 0.067zM751.104 468.496c-13.059-23.143-21.838-50.369-24.516-79.364l-0.060-0.798c-31.322-2.43-60.065-11.462-85.501-25.699l1.048 0.539c24.414-13.548 53.148-22.504 83.721-24.919l0.731-0.046c2.676-29.86 11.463-57.162 25.099-81.368l-0.524 1.011c13.213 23.242 22.125 50.591 24.902 79.73l0.063 0.822c29.052 3.123 55.49 11.857 79.047 25.108l-1.030-0.533c-22.512 12.806-48.965 21.552-77.144 24.501l-0.873 0.074c-2.776 30.095-11.695 57.588-25.493 81.954l0.527-1.012z" />
<glyph unicode="&#xe910;" d="M531.487 423.637c1.988-201.645 120.241-375.201 290.85-457.017l3.077-1.329c-223.322 42.909-391.448 231.709-391.448 458.347s168.125 415.633 391.448 458.347c-173.717-83.11-291.989-256.687-293.925-458.091l-0.002-0.256z" />
<glyph unicode="&#xe911;" glyph-name="set_up_con" horiz-adv-x="1025" d="M973.44 570.632h-90.118c-8.513 17.729-20.481 54.468-35.97 80.581l63.684 59.652c19.969 19.521 20.033 50.051 0 69.381l-72.581 69.765c-20.033 19.329-52.611 19.137-72.709-0.192l-60.036-61.572c-27.202 14.849-65.284 26.434-83.526 34.626v86.918c0 27.458-30.082 49.603-58.5 49.603h-102.663c-28.29 0-58.436-22.145-58.436-49.603v-86.982c-18.305-8.193-56.324-19.841-83.398-34.69l-61.892 61.444c-20.097 19.393-51.715 19.393-71.749 0l-72.197-70.085c-20.033-19.393-19.905-50.819 0.256-70.277l63.748-57.988c-15.425-26.178-27.394-62.852-35.906-80.581h-90.054c-28.418 0-51.395-29.058-51.395-56.452v-99.207c0-27.394 22.978-56.452 51.395-56.452h90.054c8.513-17.601 20.545-54.34 35.97-80.581l-63.62-59.716c-20.033-19.393-20.033-49.859 0-69.253l72.645-69.893c20.033-19.265 52.547-19.201 72.645 0.448l60.1 61.444c27.074-14.785 65.156-26.37 83.462-34.626v-86.918c0-27.394 30.082-49.667 58.436-49.667h102.727c28.418 0 58.5 22.337 58.5 49.667v86.918c18.241 8.257 56.324 19.905 83.59 34.754l61.7-61.444c20.097-19.521 51.779-19.521 71.749 0l72.261 70.213c20.033 19.265 19.905 50.691-0.384 70.149l-63.62 57.988c15.361 26.178 27.33 62.852 35.842 80.517h90.118c28.354 0 51.395 29.122 51.395 56.452v99.207c-0.128 27.394-23.17 56.452-51.523 56.452v0zM512.418 241.458c-127.624 0-231.119 99.847-231.119 223.055 0 123.336 103.495 223.247 231.119 223.247s231.183-99.911 231.183-223.247c0-123.208-103.559-223.055-231.183-223.055v0z" />
<glyph unicode="&#xe912;" glyph-name="exit" d="M511.744-64c-126.913 0-249.219 47.080-342.869 132.030-17.399 15.864-18.935 42.987-3.070 60.386s42.987 18.935 60.386 3.070c78.297-71.132 180.134-110.025 286.065-110.025 234.891 0 426.283 191.392 426.283 426.283s-191.392 426.283-426.283 426.283c-105.931 0-208.28-39.404-286.577-110.537-17.399-15.864-44.522-14.329-60.386 3.070s-14.329 44.522 3.070 60.386c94.161 85.461 216.98 133.053 343.892 133.053 281.971 0 511.744-229.773 511.744-511.744-0.512-282.483-230.285-512.256-512.256-512.256zM0 447.744l359.244-251.266v107.466h71.644v287.088h-71.644v107.466l-359.244-250.755zM538.355 303.944v287.088h-71.644v-287.088h71.644zM605.393 303.944v287.088h-35.822v-287.088h35.822zM671.92 303.944v287.088h-35.822v-287.088h35.822zM736.912 303.944v287.088h-35.822v-287.088h35.822zM803.438 303.944v287.088h-35.822v-287.088h35.822z" />
<glyph unicode="&#xe913;" glyph-name="open-r" d="M251.392-3.584l34.816-34.816 486.4 486.4-486.4 486.4-34.816-34.816 451.584-451.584z" />
<glyph unicode="&#xe914;" glyph-name="hand" d="M819.2 560.64c-20.48 0-35.84-5.12-51.2-15.36-10.24 35.84-46.080 61.44-81.92 61.44-15.36 0-35.84-5.12-51.2-15.36-10.24 35.84-40.96 61.44-81.92 61.44-15.36 0-30.72-5.12-40.96-10.24v92.16c0 51.2-35.84 92.16-87.040 92.16s-92.16-40.96-92.16-92.16v-353.28l-56.32 56.32c-35.84 35.84-97.28 30.72-128 0s-51.2-92.16-5.12-133.12l271.36-271.36c46.080-35.84 102.4-61.44 209.92-61.44 256 0 281.6 138.24 281.6 312.32v184.32c0 51.2-40.96 92.16-87.040 92.16zM855.040 284.16c0-143.36 0-261.12-230.4-261.12-97.28 0-158.72 20.48-199.68 66.56l-240.64 240.64c-20.48 20.48-15.36 51.2 0 66.56s51.2 20.48 66.56 0c0 0 40.96-40.96 81.92-76.8l51.2-51.2v460.8c0 25.6 20.48 40.96 46.080 40.96s40.96-20.48 40.96-40.96v-296.96c0-10.24 10.24-25.6 20.48-25.6 15.36 0 25.6 10.24 25.6 25.6v122.88c0 25.6 15.36 40.96 40.96 40.96 0 0 40.96 0 40.96-40.96v-163.84c0-10.24 10.24-25.6 20.48-25.6 15.36 0 25.6 10.24 25.6 25.6v117.76c0 25.6 15.36 40.96 40.96 40.96 0 0 40.96-5.12 40.96-40.96v-143.36c0-10.24 10.24-25.6 20.48-25.6 15.36 0 25.6 10.24 25.6 25.6v102.4c0 25.6 20.48 40.96 40.96 40.96 0 0 40.96 0 40.96-40.96v-184.32zM296.96 601.6v76.8c-10.24 15.36-15.36 35.84-15.36 56.32 0 76.8 61.44 138.24 138.24 138.24s138.24-61.44 138.24-138.24c0-10.24 0-20.48-5.12-30.72 15.36 0 30.72-10.24 46.080-20.48 5.12 15.36 5.12 30.72 5.12 51.2 0 102.4-81.92 184.32-184.32 184.32s-184.32-81.92-184.32-184.32c0-51.2 20.48-97.28 61.44-133.12z" />
<glyph unicode="&#xe915;" glyph-name="more" d="M170.667 405.333c23.564 0 42.667 19.103 42.667 42.667s-19.103 42.667-42.667 42.667v0c-23.564 0-42.667-19.103-42.667-42.667s19.103-42.667 42.667-42.667v0zM170.667 320c-70.692 0-128 57.308-128 128s57.308 128 128 128v0c70.692 0 128-57.308 128-128s-57.308-128-128-128v0zM512 405.333c23.564 0 42.667 19.103 42.667 42.667s-19.103 42.667-42.667 42.667v0c-23.564 0-42.667-19.103-42.667-42.667s19.103-42.667 42.667-42.667v0zM512 320c-70.692 0-128 57.308-128 128s57.308 128 128 128v0c70.692 0 128-57.308 128-128s-57.308-128-128-128v0zM853.333 405.333c23.564 0 42.667 19.103 42.667 42.667s-19.103 42.667-42.667 42.667v0c-23.564 0-42.667-19.103-42.667-42.667s19.103-42.667 42.667-42.667v0zM853.333 320c-70.692 0-128 57.308-128 128s57.308 128 128 128v0c70.692 0 128-57.308 128-128s-57.308-128-128-128v0z" />
<glyph unicode="&#xe916;" glyph-name="check" d="M511.782 908.712c14.697 0 29.393-0.7 43.99-2.1 14.497-1.4 28.893-3.499 43.19-6.299s28.493-6.199 42.39-10.298c6.898-2 13.797-4.199 20.595-6.598 3.399-1.2 6.898-2.399 10.298-3.699 0.6-0.2 1.3-0.5 1.9-0.7 0.4-0.2 0.9-0.5 1.3-0.5 0.8 0 0.9 1.7 1.2 2.399 5.199 13.797 10.398 27.494 15.596 41.29 0.5 1.4 1.1 2.799 1.6 4.199-17.196 6.499-34.692 12.097-52.488 16.796-17.896 4.699-35.992 8.398-54.287 11.097-18.396 2.799-36.991 4.499-55.587 5.199-18.896 0.7-37.791 0.4-56.687-1-18.696-1.4-37.391-3.799-55.787-7.198-18.096-3.399-36.092-7.698-53.688-12.997-17.396-5.199-34.592-11.397-51.388-18.496-16.696-6.998-33.092-14.997-48.989-23.695-15.796-8.698-31.093-18.196-45.789-28.493-14.697-10.198-28.793-21.195-42.29-32.892-3.399-2.899-6.798-5.899-10.098-8.998 8.898-9.698 17.696-19.396 26.594-29.093l6.598-7.198c0.4-0.5 1-1.7 1.7-1.3s1.2 1.2 1.8 1.7c4.699 4.299 9.598 8.498 14.497 12.597 9.698 8.098 19.795 15.696 30.093 22.995 10.398 7.298 21.095 14.097 31.993 20.495 10.997 6.399 22.195 12.397 33.692 17.896 11.597 5.599 23.495 10.598 35.592 15.196s24.294 8.598 36.692 12.197c12.497 3.599 25.094 6.598 37.891 9.098 12.897 2.499 25.894 4.499 38.991 5.899 12.997 1.4 26.194 2.199 39.291 2.499h9.598zM53.188 489.508c-13.197 1.2-26.494 2.399-39.691 3.599-3.699 0.3-7.498 0.7-11.197 1-2.299-24.994-2.699-50.088-1.3-75.183 1.4-24.994 4.699-49.789 9.698-74.283 4.999-23.894 11.597-47.489 19.895-70.484 8.298-22.895 18.196-45.29 29.693-66.785 11.497-21.595 24.494-42.29 38.891-61.986 1.7-2.299 3.399-4.699 5.199-6.998 10.598 7.998 21.095 15.996 31.693 23.994 2.499 1.9 4.999 3.899 7.598 5.699 0.6 0.4 1.7 0.8 1.2 1.7-0.6 1.1-1.6 2-2.299 2.999-3.799 5.099-7.498 10.298-11.097 15.596-14.197 20.895-26.694 42.89-37.391 65.785-10.698 23.095-19.595 47.089-26.294 71.584-6.898 24.794-11.597 50.288-14.197 75.883-2.599 26.094-2.999 52.388-1.1 78.482 0.2 3.199 0.4 6.299 0.7 9.398zM512.282-12.676c-18.296 0-36.492 1.1-54.687 3.299-8.998 1.1-17.896 2.399-26.694 3.999-0.3 0.1-1.5 0.5-1.8 0.3-0.4-0.2-0.4-1.5-0.5-2.1-0.3-2.1-0.8-4.199-1.2-6.399-0.8-4.399-1.6-8.698-2.399-13.097-1.8-9.598-3.599-19.196-5.299-28.793 24.494-4.499 49.289-7.298 74.183-8.198 24.994-0.9 49.988 0 74.883 2.799 24.594 2.799 48.989 7.298 72.983 13.597 23.795 6.199 47.089 14.197 69.684 23.795 22.095 9.398 43.49 20.295 64.085 32.592 2.599 1.6 5.199 3.099 7.698 4.699-5.399 8.698-10.897 17.396-16.296 26.094-2.699 4.399-5.399 8.698-8.198 13.097-0.6 1-1.3 2-1.9 2.999-0.4 0.6-0.5 1.5-1.3 1-1.7-1-3.299-2.1-4.999-3.099-17.196-10.398-34.992-19.695-53.388-27.794-18.496-8.098-37.491-14.997-56.887-20.695-19.496-5.699-39.391-10.098-59.386-13.097-20.295-3.099-40.691-4.799-61.186-5.099-2.499 0.1-4.999 0.1-7.398 0.1zM1004.768 586.386c-6.998 24.894-15.896 49.189-26.594 72.683-2.999 6.598-6.099 13.097-9.398 19.595-13.397-6.698-26.694-13.497-40.091-20.195-1.4-0.7-2.899-1.5-4.399-2.199-0.3-0.1-1.1-0.3-1.2-0.7-0.1-0.3 0.3-0.8 0.4-1 1.5-2.799 2.899-5.599 4.299-8.498 3.199-6.598 6.099-13.297 8.998-19.995 5.599-13.397 10.598-26.994 14.997-40.891 4.299-13.897 7.998-27.994 10.997-42.29 2.999-14.397 5.399-28.893 6.998-43.49 1.7-14.697 2.599-29.593 2.799-44.39 0.2-14.897-0.3-29.793-1.5-44.69-1.2-14.797-3.199-29.593-5.799-44.29-1.732-9.888-3.296-17.25-5.059-24.533l0.56 2.738c-0.8-3.599-1.7-7.098-2.599-10.598-0.5-1.8-0.9-3.599-1.4-5.399-0.3-1.2-0.8-2.299-1-3.499-0.2-1 1-0.9 1.7-1.1 1.6-0.3 3.199-0.9 4.699-1.3l10.798-2.999c7.198-2 14.497-3.999 21.695-6.099 3.399-1 6.798-1.9 10.198-2.899 4.899 17.396 8.798 35.092 11.797 52.988s5.099 35.992 6.199 54.188c1.1 18.296 1.2 36.692 0.3 54.987s-2.699 36.492-5.599 54.587c-2.799 17.796-6.499 35.492-11.197 52.888-0.4 2.1-1 4.199-1.6 6.399zM419.703 144.588c19.695-6.099 40.091-10.298 60.586-12.497 20.695-2.199 41.59-2.399 62.386-0.5 11.697 1 23.295 2.699 34.792 5.099l-3.899 19.496c-0.6 3.199-1.3 6.399-1.9 9.498-0.3 1.6-0.6 3.099-0.9 4.699-0.2 0.9 0 1.9-1.1 1.8-0.9-0.1-1.8-0.4-2.699-0.6l-4.799-0.9c-3.299-0.6-6.598-1.1-9.898-1.5-6.499-0.9-12.997-1.5-19.496-2-13.097-0.9-26.294-0.8-39.391 0.1-12.997 0.9-25.994 2.799-38.691 5.499-12.497 2.699-24.794 6.199-36.792 10.598-11.897 4.299-23.395 9.398-34.592 15.296-11.097 5.799-21.795 12.397-32.093 19.695-10.098 7.198-19.795 15.097-28.793 23.595-9.198 8.598-17.796 17.796-25.794 27.594-1 1.2-2 2.499-2.999 3.799-0.6 0.7-1.1 1.6-1.7 2.299-0.3 0.3-0.2 0.3-0.5 0.2-0.4-0.1-1-0.7-1.3-1l-3.899-2.999-15.896-12.297c-2.499-1.9-4.999-3.899-7.498-5.799 7.698-9.998 15.996-19.396 24.794-28.393s18.196-17.396 27.994-25.294c9.798-7.898 20.195-15.196 30.893-21.895 10.798-6.698 21.895-12.797 33.392-18.096 11.597-5.399 23.495-10.098 35.592-14.097 1.2-0.5 2.699-0.9 4.199-1.4zM514.082 729.353v30.093c0 1.6-0.1 3.199 0 4.799 0 0.9 0.2 1.4-0.9 1.5-0.9 0.1-1.9-0.1-2.799-0.1-1.5 0-3.099 0-4.599-0.1-3.299-0.1-6.598-0.2-9.898-0.4-6.698-0.4-13.397-1-19.995-1.8-13.097-1.6-26.094-3.999-38.791-7.098-12.597-3.099-24.994-7.098-37.091-11.697-11.897-4.599-23.495-9.898-34.792-15.896-11.197-5.999-22.095-12.597-32.493-19.895-10.298-7.198-20.195-14.997-29.593-23.395-9.398-8.298-18.296-17.196-26.594-26.594-8.398-9.398-16.196-19.396-23.395-29.793s-13.797-21.195-19.695-32.293c-1.5-2.899-2.999-5.699-4.399-8.598 5.499-2.699 10.897-5.399 16.396-8.098 2.699-1.3 5.399-2.599 7.998-3.999 2.299-1.1 4.799-2.199 6.998-3.499 0.6-0.4 1.1-0.7 1.5-0.1s0.6 1.4 1 2.1c1.2 2.499 2.599 4.999 3.899 7.498 2.699 5.099 5.599 10.098 8.698 14.997 11.997 19.296 26.394 37.191 42.69 53.088 16.296 15.796 34.492 29.693 54.088 41.091 19.995 11.597 41.39 20.795 63.585 27.194 22.795 6.499 46.289 10.098 69.984 10.798 2.499 0.2 5.399 0.2 8.198 0.2zM511.982 570.79v30.693c-22.395 0-44.69-4.899-64.985-14.397-19.296-8.998-36.592-21.995-50.588-37.991-14.197-16.196-24.894-35.292-31.193-55.887-6.698-21.695-8.398-44.79-5.199-67.185 3.099-21.695 10.897-42.59 22.795-60.986 11.597-17.996 26.894-33.492 44.69-45.29 18.196-11.997 38.891-20.095 60.486-23.395 22.395-3.499 45.589-2.1 67.384 4.299 21.295 6.199 41.091 17.196 57.787 31.793s30.193 32.892 39.191 53.188c2.199 4.899 4.099 9.998 5.799 15.097-4.799 1.6-9.598 3.099-14.397 4.699-2.399 0.8-4.799 1.5-7.198 2.299-2.199 0.7-4.499 1.6-6.698 2.199-0.8 0.2-1 0.4-1.2-0.4s-0.4-1.5-0.7-2.299c-0.8-2.199-1.6-4.299-2.399-6.399-1.8-4.399-3.899-8.698-6.199-12.797-8.798-15.796-21.195-29.593-35.892-40.091-15.196-10.798-32.792-17.996-51.088-21.095-19.096-3.199-38.791-1.8-57.287 3.999-17.496 5.499-33.692 15.097-47.089 27.694-13.297 12.497-23.695 27.894-30.393 44.79-6.998 17.796-9.698 37.191-7.898 56.287 1.8 18.696 7.898 36.792 17.696 52.788 9.598 15.496 22.595 28.793 37.791 38.691 15.696 10.198 33.592 16.696 52.188 18.896 4.799 0.5 9.698 0.8 14.597 0.8zM835.907 753.148c-12.697-10.698-25.394-21.295-38.091-31.993-12.797-10.698-25.594-21.395-38.291-32.193-3.599-2.999-7.198-5.999-10.798-9.098-1.8-1.5-3.499-2.999-5.299-4.499-0.9-0.8-1.8-1.5-2.699-2.299-0.3-0.2-0.5-0.4-0.7-0.7l-0.7-0.5c0-0.1 0.3-0.2 0.4-0.2-0.1-0.1-1.3 1-1.4 1.1-0.7 0.7-1.3 1.4-2 2-1.6 1.6-3.199 3.099-4.799 4.599-3.199 2.999-6.399 5.899-9.698 8.798-4.899-5.699-9.798-11.397-14.797-17.096-2.399-2.799-4.799-5.599-7.198-8.298-0.5-0.5-1.2-1.1-1.5-1.7-0.3-0.5 0-0.6 0.5-1 1.2-1 2.399-2.1 3.599-3.199 3.099-2.799 6.099-5.599 8.998-8.498-19.595-16.496-39.191-32.892-58.886-49.389-19.695-16.596-39.391-33.092-59.186-49.689-19.695-16.496-39.391-32.992-58.986-49.489-1.2-1-2.299-2-3.499-2.899-0.3-0.3-0.8-0.8-1.1-1-0.5-0.2-1 0.2-1.4 0.4-2.799 1.2-6.099 1.7-9.098 2.199-6.099 0.8-12.297 0.6-18.196-0.7-10.498-2.299-20.195-8.098-27.294-16.096-7.198-8.098-11.597-18.496-12.597-29.193-1-11.397 1.8-22.995 8.098-32.493 5.799-8.898 14.397-15.996 24.394-19.795 10.598-4.099 22.295-4.599 33.192-1.3 10.498 3.099 19.795 9.598 26.294 18.396 6.798 9.098 10.498 20.395 10.198 31.793 0 1.5-0.1 2.999-0.3 4.499-0.1 0.6-0.1 1.1-0.3 1.6-0.1 0.4-0.4 1.1-0.3 1.5 0.1 0.3 0.4 0.5 0.7 0.7 0.6 0.4 1.1 0.9 1.7 1.4 1.3 1.1 2.499 2.1 3.799 3.199 4.899 4.099 9.798 8.198 14.597 12.297 9.798 8.198 19.595 16.396 29.293 24.594 19.695 16.596 39.491 33.092 59.186 49.689 19.595 16.496 39.291 32.992 58.886 49.389 4.599 3.899 9.198 7.698 13.797 11.597 10.198-14.597 19.096-30.093 26.394-46.389 7.498-16.696 13.297-34.092 17.496-51.888 4.199-18.396 6.598-37.091 7.098-55.987 0.5-18.996-0.9-38.091-4.199-56.787-0.8-4.599-1.8-9.298-2.799-13.897-0.4-1.9-0.8-3.799-1.4-5.699-0.2-0.6-0.4-1.1-0.5-1.7-0.1-0.7 0.1-0.7 0.8-0.9 2.1-0.6 4.299-1.1 6.499-1.6 2.399-0.6 4.699-1.2 7.098-1.8 4.699-1.2 9.298-2.399 13.997-3.599 2.299-0.6 4.499-1.2 6.798-1.8 3.399 12.897 5.899 25.994 7.598 39.191 1.7 13.397 2.599 26.794 2.699 40.291 0 13.597-0.8 27.094-2.399 40.591-1.7 13.297-4.099 26.394-7.498 39.391-3.299 12.797-7.398 25.394-12.197 37.691-4.799 12.197-10.398 23.994-16.596 35.492-3.099 5.799-6.499 11.397-9.998 16.996-3.099 4.899-6.199 9.998-9.898 14.597-0.4 0.5-1.1 1-0.6 1.6 0.3 0.4 0.8 0.6 1.1 0.8l1.5 1.2c2.599 2.199 5.299 4.399 7.898 6.598 5.199 4.399 10.398 8.698 15.596 13.097 10.498 8.798 20.895 17.596 31.393 26.294 10.398 8.698 20.795 17.496 31.193 26.194 2.499 2.1 5.099 4.299 7.598 6.399-8.598 10.198-17.096 20.395-25.694 30.593-2.699 2.899-5.099 5.699-7.498 8.598z" />
<glyph unicode="&#xe984;" glyph-name="refresh" d="M1024 576h-384l143.53 143.53c-72.53 72.526-168.96 112.47-271.53 112.47s-199-39.944-271.53-112.47c-72.526-72.53-112.47-168.96-112.47-271.53s39.944-199 112.47-271.53c72.53-72.526 168.96-112.47 271.53-112.47s199 39.944 271.528 112.472c6.056 6.054 11.86 12.292 17.456 18.668l96.32-84.282c-93.846-107.166-231.664-174.858-385.304-174.858-282.77 0-512 229.23-512 512s229.23 512 512 512c141.386 0 269.368-57.326 362.016-149.984l149.984 149.984v-384z" />
<glyph unicode="&#xe994;" glyph-name="set-up" d="M933.79 349.75c-53.726 93.054-21.416 212.304 72.152 266.488l-100.626 174.292c-28.75-16.854-62.176-26.518-97.846-26.518-107.536 0-194.708 87.746-194.708 195.99h-201.258c0.266-33.41-8.074-67.282-25.958-98.252-53.724-93.056-173.156-124.702-266.862-70.758l-100.624-174.292c28.97-16.472 54.050-40.588 71.886-71.478 53.638-92.908 21.512-211.92-71.708-266.224l100.626-174.292c28.65 16.696 61.916 26.254 97.4 26.254 107.196 0 194.144-87.192 194.7-194.958h201.254c-0.086 33.074 8.272 66.57 25.966 97.218 53.636 92.906 172.776 124.594 266.414 71.012l100.626 174.29c-28.78 16.466-53.692 40.498-71.434 71.228zM512 240.668c-114.508 0-207.336 92.824-207.336 207.334 0 114.508 92.826 207.334 207.336 207.334 114.508 0 207.332-92.826 207.332-207.334-0.002-114.51-92.824-207.334-207.332-207.334z" />
<glyph unicode="&#xe9c1;" glyph-name="cloud" d="M1024 302.458c0 82.090-56.678 150.9-132.996 169.48-3.242 128.7-108.458 232.062-237.862 232.062-75.792 0-143.266-35.494-186.854-90.732-24.442 31.598-62.69 51.96-105.708 51.96-73.81 0-133.642-59.874-133.642-133.722 0-6.436 0.48-12.76 1.364-18.954-11.222 2.024-22.766 3.138-34.57 3.138-106.998 0.002-193.732-86.786-193.732-193.842 0-107.062 86.734-193.848 193.73-193.848l656.262 0.012c96.138 0.184 174.008 78.212 174.008 174.446z" />
<glyph unicode="&#xe9c5;" glyph-name="download" d="M896 448h-160l-224-224-224 224h-160l-128-256v-64h1024v64l-128 256zM0 64h1024v-64h-1024v64zM576 640v256h-128v-256h-224l288-288 288 288h-224z" />
<glyph unicode="&#xe9c6;" glyph-name="upload" d="M0 64h1024v-64h-1024zM1024 192v-64h-1024v64l128 256h256v-128h256v128h256zM224 640l288 288 288-288h-224v-256h-128v256z" />
<glyph unicode="&#xea41;" glyph-name="circle-up" d="M0 448c0-282.77 229.23-512 512-512s512 229.23 512 512-229.23 512-512 512-512-229.23-512-512zM928 448c0-229.75-186.25-416-416-416s-416 186.25-416 416 186.25 416 416 416 416-186.25 416-416zM706.744 290.744l90.512 90.512-285.256 285.254-285.254-285.256 90.508-90.508 194.746 194.744z" />
<glyph unicode="&#xea42;" glyph-name="circle-right" d="M512 960c-282.77 0-512-229.23-512-512s229.23-512 512-512 512 229.23 512 512-229.23 512-512 512zM512 32c-229.75 0-416 186.25-416 416s186.25 416 416 416 416-186.25 416-416-186.25-416-416-416zM354.744 253.256l90.512-90.512 285.254 285.256-285.256 285.254-90.508-90.508 194.744-194.746z" />
<glyph unicode="&#xea43;" glyph-name="circle-down" d="M1024 448c0 282.77-229.23 512-512 512s-512-229.23-512-512 229.23-512 512-512 512 229.23 512 512zM96 448c0 229.75 186.25 416 416 416s416-186.25 416-416-186.25-416-416-416-416 186.25-416 416zM317.256 605.256l-90.512-90.512 285.256-285.254 285.254 285.256-90.508 90.508-194.746-194.744z" />
<glyph unicode="&#xea44;" glyph-name="circle-left" d="M512-64c282.77 0 512 229.23 512 512s-229.23 512-512 512-512-229.23-512-512 229.23-512 512-512zM512 864c229.75 0 416-186.25 416-416s-186.25-416-416-416-416 186.25-416 416 186.25 416 416 416zM669.256 642.744l-90.512 90.512-285.254-285.256 285.256-285.254 90.508 90.508-194.744 194.746z" />
<glyph unicode="&#xeaaf;" glyph-name="onedrive" d="M350.868 131.612c-60.274 15.060-93.856 62.97-93.962 134.064-0.032 22.726 1.612 33.62 7.286 48.236 13.908 35.834 50.728 62.872 99.176 72.822 24.11 4.95 31.536 10.266 31.536 22.572 0 3.862 2.872 15.36 6.378 25.552 15.932 46.306 45.43 84.91 76.948 100.702 32.99 16.526 49.642 20.254 89.548 20.040 56.674-0.304 84.952-12.598 124.496-54.128l21.75-22.842 19.484 6.742c94.3 32.636 188.306-22.916 195.888-115.756l2.072-25.398 18.57-6.65c53.032-19.004 77.96-58.904 73.442-117.556-2.958-38.358-20.89-68.98-49.3-84.184l-13.356-7.146-296.822-0.57c-228.094-0.44-300.6 0.368-313.134 3.5v0zM103.218 174.034c-36.176 9.086-74.506 42.854-92.48 81.47-10.196 21.906-10.738 25.128-10.738 63.88 0 36.864 0.87 42.778 8.988 61.080 17.11 38.582 49.894 66.46 91.030 77.408 8.684 2.312 16.842 6 18.128 8.196 1.29 2.198 2.722 14.164 3.182 26.592 2.866 77.196 50.79 145.214 117.708 167.056 36.154 11.8 83.572 12.898 122.896-3.726 12.47-5.274 11.068-6.404 37.438 30.14 15.594 21.612 45.108 44.49 70.9 58.18 27.838 14.776 56.792 21.584 91.412 21.494 96.768-0.252 180.166-64.22 211.004-161.848 9.854-31.192 9.362-39.926-2.26-40.184-5.072-0.112-19.604-3.064-32.292-6.558l-23.072-6.358-21.052 22.25c-59.362 62.734-156.238 76.294-238.592 33.396-32.9-17.138-59.34-41.746-79.31-73.81-14.236-22.858-32.39-65.504-32.39-76.094 0-7.51-5.754-11.264-30.332-19.782-76.094-26.376-120.508-87.282-120.476-165.218 0.010-28.368 6.922-63.074 16.52-82.956 3.618-7.494 5.634-14.622 4.484-15.836-2.946-3.106-97.608-2.060-110.696 1.228v0z" />
<glyph unicode="&#xeabe;" glyph-name="appleinc" d="M791.498 415.908c-1.294 129.682 105.758 191.876 110.542 194.966-60.152 88.020-153.85 100.078-187.242 101.472-79.742 8.074-155.596-46.948-196.066-46.948-40.368 0-102.818 45.754-168.952 44.552-86.916-1.292-167.058-50.538-211.812-128.38-90.304-156.698-23.126-388.84 64.89-515.926 43.008-62.204 94.292-132.076 161.626-129.58 64.842 2.588 89.362 41.958 167.756 41.958s100.428-41.958 169.050-40.67c69.774 1.296 113.982 63.398 156.692 125.796 49.39 72.168 69.726 142.038 70.924 145.626-1.548 0.706-136.060 52.236-137.408 207.134zM662.562 796.478c35.738 43.358 59.86 103.512 53.28 163.522-51.478-2.096-113.878-34.29-150.81-77.55-33.142-38.376-62.148-99.626-54.374-158.436 57.466-4.484 116.128 29.204 151.904 72.464z" />
<glyph unicode="&#xeac0;" glyph-name="android" d="M896 576c-35.2 0-64-28.8-64-64v-256c0-35.2 28.8-64 64-64s64 28.8 64 64v256c0 35.2-28.8 64-64 64zM128 576c-35.2 0-64-28.8-64-64v-256c0-35.2 28.8-64 64-64s64 28.8 64 64v256c0 35.2-28.802 64-64 64zM224 224c0-53.020 42.98-96 96-96v0-128c0-35.2 28.8-64 64-64s64 28.8 64 64v128h128v-128c0-35.2 28.8-64 64-64s64 28.8 64 64v128c53.020 0 96 42.98 96 96v352h-576v-352zM798.216 639.998c-9.716 87.884-59.004 163.792-129.62 209.646l32.024 64.046c7.904 15.806 1.496 35.028-14.31 42.932s-35.030 1.496-42.932-14.312l-32.142-64.286-8.35 3.316c-28.568 9.502-59.122 14.66-90.886 14.66-31.762 0-62.316-5.158-90.888-14.656l-8.348-3.316-32.142 64.282c-7.904 15.808-27.128 22.212-42.932 14.312-15.808-7.904-22.214-27.126-14.312-42.932l32.022-64.046c-70.616-45.852-119.904-121.762-129.622-209.644v-32h574.222v31.998h-1.784zM416 704c-17.674 0-32 14.328-32 32 0 17.648 14.288 31.958 31.93 31.996 0.032 0 0.062-0.002 0.094-0.002 0.018 0 0.036 0.002 0.052 0.002 17.638-0.042 31.924-14.35 31.924-31.996 0-17.672-14.326-32-32-32zM608 704c-17.674 0-32 14.328-32 32 0 17.646 14.286 31.954 31.924 31.996 0.016 0 0.034-0.002 0.050-0.002 0.032 0 0.064 0.002 0.096 0.002 17.64-0.038 31.93-14.348 31.93-31.996 0-17.672-14.326-32-32-32z" />
<glyph unicode="&#xead9;" glyph-name="chrome" d="M258.278 513.458l-146.532 253.802c93.818 117.464 238.234 192.74 400.254 192.74 187.432 0 351.31-100.736 440.532-251h-417.77c-7.504 0.65-15.092 1-22.762 1-121.874 0-224.578-83.644-253.722-196.542zM695.306 635h293.46c22.74-57.93 35.234-121.004 35.234-187 0-280.826-226.1-508.804-506.186-511.926l209.394 362.678c29.48 42.378 46.792 93.826 46.792 149.248 0 73.17-30.164 139.42-78.694 187zM326 448c0 102.56 83.44 186 186 186s186-83.44 186-186c0-102.56-83.44-186-186-186s-186 83.44-186 186zM582.182 195.558l-146.578-253.878c-246.532 36.884-435.604 249.516-435.604 506.32 0 91.218 23.884 176.846 65.696 251.024l209.030-362.054c41.868-89.112 132.476-150.97 237.274-150.97 24.3 0 47.836 3.34 70.182 9.558z" />
<glyph unicode="&#xeada;" glyph-name="firefox" d="M1022.526 625.86l-11.86-76.080c0 0-16.954 140.856-37.732 193.514-31.846 80.688-46.014 80.040-46.108 79.922 21.33-54.204 17.462-83.324 17.462-83.324s-37.792 102.998-137.712 135.768c-110.686 36.282-170.57 26.364-177.488 24.486-1.050 0.008-2.064 0.010-3.030 0.010 0.818-0.062 1.612-0.146 2.426-0.212-0.034-0.020-0.090-0.042-0.082-0.052 0.45-0.548 122.306-21.302 143.916-50.996 0 0-51.76 0-103.272-14.842-2.328-0.666 189.524-23.964 228.746-215.674 0 0-21.030 43.876-47.040 51.328 17.106-52.036 12.714-150.776-3.576-199.85-2.096-6.312-4.24 27.282-36.328 41.75 10.28-73.646-0.616-190.456-51.708-222.632-3.982-2.504 32.030 115.31 7.242 69.762-142.708-218.802-311.404-100.972-387.248-49.11 38.866-8.462 112.654 1.318 145.314 25.612 0.042 0.030 0.078 0.056 0.118 0.086 35.468 24.252 56.472 41.964 75.334 37.772 18.874-4.214 31.438 14.726 16.78 31.53-14.676 16.838-50.314 39.978-98.524 27.366-34-8.904-76.134-46.522-140.448-8.432-49.364 29.25-54.012 53.546-54.45 70.376 1.218 5.966 2.754 11.536 4.576 16.624 5.682 15.87 22.912 20.658 32.494 24.438 16.256-2.792 30.262-7.862 44.968-15.406 0.19 4.894 0.252 11.39-0.018 18.76 1.41 2.802 0.538 11.252-1.722 21.58-1.302 10.308-3.42 20.974-6.752 30.692 0.012 0.002 0.020 0.010 0.030 0.014 0.056 0.018 0.108 0.040 0.156 0.070 0.078 0.044 0.146 0.112 0.208 0.19 0.012 0.020 0.030 0.034 0.044 0.052 0.082 0.124 0.154 0.272 0.198 0.466 1.020 4.618 12.022 13.524 25.718 23.1 12.272 8.58 26.702 17.696 38.068 24.752 10.060 6.248 17.72 10.882 19.346 12.098 0.618 0.466 1.358 1.012 2.164 1.636 0.15 0.116 0.3 0.232 0.454 0.354 0.094 0.074 0.19 0.148 0.286 0.226 5.41 4.308 13.484 12.448 15.178 29.578 0.004 0.042 0.010 0.080 0.012 0.122 0.050 0.504 0.092 1.014 0.13 1.534 0.028 0.362 0.050 0.726 0.072 1.096 0.014 0.284 0.032 0.566 0.044 0.856 0.030 0.674 0.050 1.364 0.060 2.064 0 0.040 0.002 0.076 0.004 0.116 0.022 1.658-0.006 3.386-0.104 5.202-0.054 1.014-0.126 1.93-0.298 2.762-0.008 0.044-0.018 0.092-0.028 0.136-0.018 0.082-0.036 0.164-0.058 0.244-0.036 0.146-0.076 0.292-0.122 0.43-0.006 0.018-0.010 0.032-0.016 0.046-0.052 0.16-0.112 0.314-0.174 0.464-0.004 0.006-0.004 0.010-0.006 0.016-1.754 4.108-8.32 5.658-35.442 6.118-0.026 0.002-0.050 0.002-0.076 0.002v0c-11.066 0.188-25.538 0.194-44.502 0.118-33.25-0.134-51.628 32.504-57.494 45.132 8.040 44.46 31.276 76.142 69.45 97.626 0.722 0.406 0.58 0.742-0.274 0.978 7.464 4.514-90.246 0.124-135.186-57.036-39.888 9.914-74.654 9.246-104.616 2.214-5.754 0.162-12.924 0.88-21.434 2.652-19.924 18.056-48.448 51.402-49.976 91.208 0 0-0.092-0.072-0.252-0.204-0.020 0.382-0.056 0.76-0.072 1.142 0 0-60.716-46.664-51.628-173.882-0.022-2.036-0.064-3.986-0.12-5.874-16.432-22.288-24.586-41.020-25.192-45.156-14.56-29.644-29.334-74.254-41.356-141.98 0 0 8.408 26.666 25.284 56.866-12.412-38.022-22.164-97.156-16.436-185.856 0 0 1.514 19.666 6.874 47.994 4.186-55.010 22.518-122.924 68.858-202.788 88.948-153.32 225.67-230.74 376.792-242.616 26.836-2.212 54.050-2.264 81.424-0.186 2.516 0.178 5.032 0.364 7.55 0.574 30.964 2.174 62.134 6.852 93.238 14.366 425.172 102.798 378.942 616.198 378.942 616.198z" />
<glyph unicode="&#xeadd;" glyph-name="safari" d="M512 960c-282.8 0-512-229.2-512-512s229.2-512 512-512 512 229.2 512 512-229.2 512-512 512zM958.4 487.2l-1 10.6c0.2-3.6 0.6-7 1-10.6zM888.4 691.2l-7.2 10.8c2.4-3.6 4.8-7.2 7.2-10.8zM860.6 729.4l-4.4 5.4c1.6-1.8 3-3.6 4.4-5.4zM798.6 792.4l-5.4 4.4c2-1.6 3.6-3 5.4-4.4zM766 817.2l-10.8 7.2c3.6-2.4 7.2-4.8 10.8-7.2zM561.8 893.2l-10.8 1c3.6-0.2 7.2-0.6 10.8-1zM472.8 894.4l-10.8-1c3.6 0.2 7.2 0.6 10.8 1zM268.8 824.4l-10.8-7.2c3.6 2.4 7.2 4.8 10.8 7.2zM230.6 796.6l-5.2-4.2c1.8 1.4 3.4 2.8 5.2 4.2zM167.6 734.6l-4.4-5.4c1.6 1.8 3 3.6 4.4 5.4zM142.8 702l-7.2-10.8c2.4 3.6 4.8 7.2 7.2 10.8zM66.8 497.8l-1-10.8c0.2 3.6 0.6 7.2 1 10.8zM65.6 408.8l1-10.8c-0.2 3.6-0.6 7.2-1 10.8zM135.6 205l7.2-10.8c-2.4 3.4-4.8 7-7.2 10.8zM144 192.4l79.8 53.4-8.8 13.4-79.8-53.4c-36.2 56.2-60 120.8-68 190.4l47.8 4.8-1.6 16-47.8-4.8c-0.8 9.2-1.2 18.6-1.4 28h96v16h-96c0.2 9.4 0.6 18.6 1.4 28l47.8-4.6 1.6 16-47.8 4.6c8 69.6 32 134.2 68.2 190.4l79.8-53.4 8.8 13.4-80 53c5.4 7.6 10.8 15.2 16.6 22.4l37-30.4 10.2 12.4-37 30.4c6 7.2 12.4 14 18.8 20.8l67.8-67.8 11.4 11.4-67.8 67.8c6.8 6.4 13.6 12.8 20.6 18.8l30.4-37.2 12.4 10.2-30.4 37c7.4 5.8 14.8 11.4 22.4 16.8l53.4-79.8 13.4 8.8-53.4 79.8c56.2 36.2 120.8 60 190.4 68l4.8-47.8 16 1.6-4.8 47.8c9.2 0.8 18.6 1.2 28 1.4v-96h16v96c9.4-0.2 18.6-0.6 28-1.4l-4.6-47.8 16-1.6 4.6 47.8c69.6-8 134.2-32 190.4-68.2l-53.4-79.8 13.4-8.8 53.4 79.8c7.6-5.4 15.2-10.8 22.4-16.6l-30.4-37 12.4-10.2 30.4 37c7.2-6 14-12.4 20.8-18.8l-25.6-25-350-233.4-233.4-350-25-25c-6.4 6.8-12.8 13.6-18.8 20.6l37 30.4-10.2 12.4-37-30.4c-5.8 7.2-11.2 14.8-16.6 22.4zM167.6 161.4c-1.4 1.8-2.8 3.4-4.2 5.2l4.2-5.2zM225.4 103.6l5.2-4.2c-1.8 1.4-3.4 2.8-5.2 4.2zM258 79l10.8-7.2c-3.6 2.2-7.2 4.6-10.8 7.2zM462.2 2.8l10.8-1c-3.6 0.2-7.2 0.6-10.8 1zM551.2 1.6l10.6 1c-3.6-0.2-7-0.6-10.6-1zM755.2 71.6l10.8 7.2c-3.6-2.4-7.2-4.8-10.8-7.2zM793.4 99.4l5.4 4.4c-1.8-1.6-3.6-3-5.4-4.4zM828.4 130.8l0.8 0.8c-0.2-0.2-0.6-0.6-0.8-0.8zM856.4 161.4l4.4 5.4c-1.6-1.8-3-3.6-4.4-5.4zM863.4 170l-37 30.4-10.2-12.4 37-30.4c-6-7.2-12.4-14-18.8-20.8l-67.8 67.8-11.4-11.4 67.8-67.8c-6.8-6.4-13.6-12.8-20.6-18.8l-30.4 37.2-12.4-10.2 30.4-37c-7.4-5.8-14.8-11.4-22.4-16.8l-53.4 79.8-13.4-8.8 53.4-79.8c-56.2-36.2-120.8-60-190.4-68l-4.8 47.8-16-1.6 4.8-47.8c-9.2-0.8-18.6-1.2-28-1.4v96h-16v-96c-9.4 0.2-18.6 0.6-28 1.4l4.6 47.8-16 1.6-4.6-47.8c-69.6 8-134.2 32-190.4 68.2l53.4 79.8-13.4 8.8-53-79.8c-7.6 5.4-15.2 10.8-22.4 16.6l30.4 37-12.4 10.2-30.4-37c-7.2 6-14 12.4-20.8 18.8l25.2 25 350 233.4 233.4 350 25 25c6.4-6.8 12.8-13.6 18.8-20.6l-37-30.4 10.2-12.4 37 30.4c5.8-7.4 11.4-14.8 16.8-22.4l-79.8-53.4 8.8-13.4 79.8 53.4c36.2-56.2 60-120.8 68-190.4l-47.8-4.8 1.6-16 47.8 4.8c0.8-9.2 1.2-18.6 1.4-28h-96v-16h96c-0.2-9.4-0.6-18.6-1.4-28l-47.8 4.6-1.6-16 47.8-4.6c-8-69.6-32-134.2-68.2-190.4l-79.8 53.4-8.8-13.4 79.8-53.4c-5.2-7.2-10.8-14.6-16.6-22zM958.4 409c-0.4-3.6-0.6-7.2-1-10.8l1 10.8zM888.4 204.8c-2.4-3.6-4.8-7.2-7.2-10.8l7.2 10.8zM432.535 888.925l18.73-94.157-15.693-3.122-18.73 94.157 15.693 3.122zM591.656 7.050l-18.73 94.157 15.693 3.122 18.73-94.157-15.693-3.122zM389.628 879.11l13.939-45.931-15.31-4.646-13.939 45.931 15.31 4.646zM634.434 17.113l-13.939 45.931 15.31 4.646 13.939-45.931-15.31-4.646zM348.014 864.901l36.739-88.694-14.782-6.123-36.739 88.694 14.782 6.123zM676.123 31.035l-36.739 88.694 14.782 6.123 36.739-88.694-14.782-6.123zM293.62 839.341l14.11 7.544 22.632-42.331-14.11-7.544-22.632 42.331zM730.101 56.711l-14.11-7.544-22.632 42.331 14.11 7.544 22.632-42.331zM120.601 666.174l42.336-22.622-7.541-14.112-42.336 22.622 7.541 14.112zM903.244 229.805l-42.336 22.622 7.541 14.112 42.336-22.622-7.541-14.112zM183.811 575.377l-88.694 36.739 6.123 14.782 88.694-36.739-6.123-14.782zM840.32 320.699l88.694-36.739-6.123-14.782-88.694 36.739 6.123 14.782zM85.543 585.613l45.936-13.93-4.643-15.312-45.936 13.93 4.643 15.312zM938.308 310.333l-45.936 13.93 4.643 15.312 45.936-13.93-4.643-15.312zM74.069 543.218l94.157-18.73-3.122-15.693-94.157 18.73 3.122 15.693zM949.741 352.757l-94.157 18.73 3.122 15.693 94.157-18.73-3.122-15.693zM70.965 368.452l94.157 18.73 3.122-15.693-94.157-18.73-3.122 15.693zM952.842 527.573l-94.157-18.73-3.122 15.693 94.157 18.73 3.122-15.693zM80.974 325.486l45.931 13.939 4.646-15.31-45.931-13.939-4.646 15.31zM942.969 570.293l-45.931-13.939-4.646 15.31 45.931 13.939 4.646-15.31zM101.142 269.088l-6.123 14.782 88.694 36.739 6.123-14.782-88.694-36.739zM922.794 626.769l6.122-14.782-88.694-36.73-6.122 14.782 88.694 36.73zM120.824 229.733l-7.544 14.11 42.331 22.632 7.544-14.11-42.331-22.632zM903.455 666.215l7.544-14.11-42.331-22.632-7.544 14.11 42.331 22.632zM307.878 49.154l-14.11 7.542 22.627 42.331 14.11-7.542-22.627-42.331zM716.073 846.926l14.112-7.541-22.622-42.336-14.112 7.541 22.622 42.336zM333.267 37.201l36.739 88.694 14.782-6.123-36.739-88.694-14.782 6.123zM690.884 858.89l-36.739-88.694-14.782 6.123 36.739 88.694 14.782-6.123zM389.634 16.972l-15.31 4.645 13.934 45.931 15.31-4.645-13.934-45.931zM634.349 879.118l15.312-4.642-13.925-45.936-15.312 4.642 13.925 45.936zM432.472 7.161l-15.693 3.122 18.73 94.157 15.693-3.122-18.73-94.157zM591.536 889.031l15.693-3.122-18.73-94.157-15.693 3.122 18.73 94.157z" />
</font>
</defs>
</svg>
